<svg xmlns="http://www.w3.org/2000/svg"  viewBox="0 0 64 64" width="48px" height="48px"><linearGradient id="aL524QQ4Uh1GQkicnXD6Ea" x1="32" x2="32" y1="1.586" y2="57" gradientUnits="userSpaceOnUse" spreadMethod="reflect"><stop offset="0" stop-color="#1a6dff"/><stop offset="1" stop-color="#c822ff"/></linearGradient><path fill="none" stroke="url(#aL524QQ4Uh1GQkicnXD6Ea)" stroke-miterlimit="10" stroke-width="2" d="M54,4v45c0,4.04-2.96,7-7,7H17 c-4.48,0-7-2.63-7-7V19c0-4.04,2.96-7,7-7h29L54,4z"/><linearGradient id="aL524QQ4Uh1GQkicnXD6Eb" x1="34.5" x2="34.5" y1="20" y2="48" gradientUnits="userSpaceOnUse" spreadMethod="reflect"><stop offset="0" stop-color="#6dc7ff"/><stop offset="1" stop-color="#e6abff"/></linearGradient><path fill="url(#aL524QQ4Uh1GQkicnXD6Eb)" d="M51,46v2H22c-2.24,0-4-1.76-4-4V24c0-2.24,1.76-4,4-4h20c2.24,0,4,1.76,4,4v17.17l3.41,3.42 L51,46z"/></svg>