<svg xmlns="http://www.w3.org/2000/svg"  viewBox="0 0 64 64" width="64px" height="64px"><radialGradient id="SVt_u3FsGadTpO9W4rCXCa" cx="32" cy="310.5" r="31.259" gradientTransform="matrix(1 0 0 -1 0 342)" gradientUnits="userSpaceOnUse"><stop offset="0" stop-color="#c5f1ff"/><stop offset=".35" stop-color="#cdf3ff"/><stop offset=".907" stop-color="#e4faff"/><stop offset="1" stop-color="#e9fbff"/></radialGradient><path fill="url(#SVt_u3FsGadTpO9W4rCXCa)" d="M58,54c-1.105,0-2-0.895-2-2s0.895-2,2-2h2.5c1.925,0,3.5-1.575,3.5-3.5S62.425,43,60.5,43H50	c-1.381,0-2.5-1.119-2.5-2.5S48.619,38,50,38h8c1.65,0,3-1.35,3-3s-1.35-3-3-3H42v-6h18c2.335,0,4.22-2.028,3.979-4.41	C63.77,19.514,61.897,18,59.811,18H58c-1.105,0-2-0.895-2-2s0.895-2,2-2h0.357c1.308,0,2.499-0.941,2.63-2.242	C61.137,10.261,59.966,9,58.5,9h-14C43.672,9,43,8.328,43,7.5S43.672,6,44.5,6h3.857c1.308,0,2.499-0.941,2.63-2.242	C51.137,2.261,49.966,1,48.5,1H15.643c-1.308,0-2.499,0.941-2.63,2.242C12.863,4.739,14.034,6,15.5,6H19c1.105,0,2,0.895,2,2	s-0.895,2-2,2H6.189c-2.086,0-3.958,1.514-4.168,3.59C1.78,15.972,3.665,18,6,18h2.5c1.933,0,3.5,1.567,3.5,3.5S10.433,25,8.5,25	H5.189c-2.086,0-3.958,1.514-4.168,3.59C0.78,30.972,2.665,33,5,33h17v11H6c-1.65,0-3,1.35-3,3s1.35,3,3,3l0,0c1.105,0,2,0.895,2,2	s-0.895,2-2,2H4.189c-2.086,0-3.958,1.514-4.168,3.59C-0.22,59.972,1.665,62,4,62h53.811c2.086,0,3.958-1.514,4.168-3.59	C62.22,56.028,60.335,54,58,54z"/><linearGradient id="SVt_u3FsGadTpO9W4rCXCb" x1="32" x2="32" y1="280.479" y2="324.479" gradientTransform="matrix(1 0 0 -1 0 342)" gradientUnits="userSpaceOnUse"><stop offset="0" stop-color="#155cde"/><stop offset=".278" stop-color="#1f7fe5"/><stop offset=".569" stop-color="#279ceb"/><stop offset=".82" stop-color="#2cafef"/><stop offset="1" stop-color="#2eb5f0"/></linearGradient><path fill="url(#SVt_u3FsGadTpO9W4rCXCb)" d="M47.775,12H16.225C12.787,12,10,14.787,10,18.225v31.549C10,53.213,12.787,56,16.225,56	h31.549C51.213,56,54,53.213,54,49.775V18.225C54,14.787,51.213,12,47.775,12z"/><path fill="#fff" d="M39,41.783C39,42.455,38.455,43,37.783,43h-17.95C17.716,43,16,41.273,16,39.143V26.217	C16,25.545,16.545,25,17.217,25h17.95C37.284,25,39,26.727,39,28.857V41.783z"/><path fill="#fff" d="M47.591,42.094l-6.171-3.967C41.158,37.959,41,37.669,41,37.358v-6.716	c0-0.311,0.158-0.601,0.42-0.769l6.171-3.967C48.199,25.515,49,25.952,49,26.675v14.649C49,42.048,48.199,42.485,47.591,42.094z"/></svg>