<svg width="14" height="25" viewBox="0 0 14 25" fill="none" xmlns="http://www.w3.org/2000/svg">
<path d="M4.50496 8.99991V17.9718C4.51535 18.6292 4.7838 19.2562 5.25239 19.7175C5.72098 20.1787 6.35213 20.4372 7.00965 20.4372C7.66716 20.4372 8.29832 20.1787 8.76691 19.7175C9.2355 19.2562 9.50395 18.6292 9.51434 17.9718L9.52246 6.18741C9.52928 5.62549 9.42449 5.06781 9.21417 4.54669C9.00385 4.02557 8.69218 3.55138 8.29723 3.15162C7.90229 2.75185 7.43191 2.43445 6.91338 2.21782C6.39485 2.00119 5.83848 1.88965 5.27652 1.88965C4.71456 1.88965 4.15819 2.00119 3.63966 2.21782C3.12113 2.43445 2.65076 2.75185 2.25581 3.15162C1.86086 3.55138 1.5492 4.02557 1.33888 4.54669C1.12856 5.06781 1.02377 5.62549 1.03059 6.18741V18.0512C1.05328 19.6192 1.69211 21.1154 2.809 22.2162C3.92589 23.317 5.43112 23.9342 6.99934 23.9342C8.56755 23.9342 10.0728 23.317 11.1897 22.2162C12.3066 21.1154 12.9454 19.6192 12.9681 18.0512V6.96491" stroke="white" stroke-width="2" stroke-miterlimit="10" stroke-linecap="square"/>
</svg>
