<svg width="49" height="48" viewBox="0 0 49 48" fill="none" xmlns="http://www.w3.org/2000/svg">
<g clip-path="url(#clip0)">
<path fill-rule="evenodd" clip-rule="evenodd" d="M0.5 9.6C0.5 4.29807 4.79807 0 10.1 0H38.9C44.2019 0 48.5 4.29807 48.5 9.6V38.4C48.5 43.7019 44.2019 48 38.9 48H10.1C4.79807 48 0.5 43.7019 0.5 38.4V9.6Z" fill="white" fill-opacity="0.1"/>
<g clip-path="url(#clip1)">
<path d="M18.125 24.0007C18.125 22.8116 18.4526 21.6977 19.0218 20.7439V16.6982H14.9761C13.3704 18.7836 12.5 21.3251 12.5 24.0007C12.5 26.6762 13.3704 29.2177 14.9761 31.3031H19.0218V27.2574C18.4526 26.3036 18.125 25.1897 18.125 24.0007Z" fill="#FBBD00"/>
<path d="M24.4999 30.3749L21.6874 33.1874L24.4999 35.9999C27.1755 35.9999 29.717 35.1295 31.8024 33.5238V29.4824H27.761C26.7989 30.0536 25.6803 30.3749 24.4999 30.3749Z" fill="#0F9D58"/>
<path d="M19.0218 27.2568L14.9761 31.3025C15.294 31.7154 15.6402 32.1108 16.0147 32.4854C18.2812 34.7519 21.2947 36.0001 24.5 36.0001V30.3751C22.1739 30.3751 20.1351 29.1226 19.0218 27.2568Z" fill="#31AA52"/>
<path d="M36.5 23.9999C36.5 23.2699 36.4339 22.5384 36.3035 21.826L36.198 21.2495H24.4999V26.8745H30.193C29.6402 27.9742 28.7901 28.8715 27.7609 29.4825L31.8023 33.5239C32.2152 33.206 32.6106 32.8598 32.9852 32.4853C35.2517 30.2187 36.5 27.2053 36.5 23.9999Z" fill="#3C79E6"/>
<path d="M29.0078 19.4922L29.5049 19.9893L33.4824 16.0119L32.9853 15.5147C30.7188 13.2482 27.7053 12 24.4999 12L21.6874 14.8125L24.4999 17.625C26.2027 17.625 27.8036 18.2881 29.0078 19.4922Z" fill="#CF2D48"/>
<path d="M24.5 17.625V12C21.2947 12 18.2812 13.2482 16.0147 15.5147C15.6401 15.8893 15.2939 16.2847 14.976 16.6976L19.0217 20.7433C20.1351 18.8775 22.1739 17.625 24.5 17.625Z" fill="#EB4132"/>
</g>
</g>
<defs>
<clipPath id="clip0">
<rect x="0.5" width="48" height="48" fill="white"/>
</clipPath>
<clipPath id="clip1">
<rect width="24" height="24" fill="white" transform="translate(12.5 12)"/>
</clipPath>
</defs>
</svg>
