<svg width="14" height="14" viewBox="0 0 14 14" fill="none" xmlns="http://www.w3.org/2000/svg">
<path d="M13.8454 2.2068C13.6384 1.99929 13.3031 1.99874 13.0954 2.20538L9.0688 6.21569L7.90513 5.05202C7.69795 4.84503 7.36247 4.84484 7.15529 5.05202L2.4356 9.77173C2.22842 9.97872 2.22842 10.3146 2.4356 10.5216C2.53901 10.6252 2.67478 10.6769 2.81054 10.6769C2.94611 10.6769 3.08206 10.6252 3.18545 10.5216L7.53022 6.17699L8.69318 7.33976C8.90017 7.54675 9.2348 7.54694 9.44231 7.34063L13.8438 2.95681C14.0513 2.75017 14.0521 2.41431 13.8454 2.2068Z" fill="#B900A3"/>
<path d="M13.452 12.3034H1.06061V1.16702C1.06061 0.874117 0.823209 0.636719 0.530304 0.636719C0.237398 0.636719 0 0.874117 0 1.16702V12.8337C0 13.1266 0.237398 13.364 0.530304 13.364H13.452C13.7449 13.364 13.9823 13.1266 13.9823 12.8337C13.9823 12.5408 13.7449 12.3034 13.452 12.3034Z" fill="#B900A3"/>
<path d="M13.4697 2.0332H9.49246C9.19956 2.0332 8.96216 2.2706 8.96216 2.56351C8.96216 2.85641 9.19956 3.09381 9.49246 3.09381H12.9394V6.54095C12.9394 6.83366 13.1768 7.07125 13.4697 7.07125C13.7626 7.07125 14 6.83366 14 6.54076V2.56351C14 2.2706 13.7626 2.0332 13.4697 2.0332Z" fill="#B900A3"/>
</svg>
