<svg width="20" height="20" viewBox="0 0 20 20" fill="none" xmlns="http://www.w3.org/2000/svg">
<g id="Icon / Noti">
<path id="icon/social/notifications_24px" fill-rule="evenodd" clip-rule="evenodd" d="M15.001 8.95833V13.125L16.076 14.2C16.601 14.725 16.226 15.625 15.4844 15.625H4.50935C3.76769 15.625 3.40102 14.725 3.92602 14.2L5.00102 13.125V8.95833C5.00102 6.39167 6.35935 4.25833 8.75102 3.69167V3.125C8.75102 2.43333 9.30935 1.875 10.001 1.875C10.6927 1.875 11.251 2.43333 11.251 3.125V3.69167C13.6344 4.25833 15.001 6.4 15.001 8.95833ZM11.6677 16.4583C11.6677 17.375 10.9177 18.125 10.001 18.125C9.07604 18.125 8.33438 17.375 8.33438 16.4583H11.6677Z" fill="#FAD416"/>
</g>
</svg>
