<svg width="20" height="21" viewBox="0 0 20 21" fill="none" xmlns="http://www.w3.org/2000/svg">
<path d="M10 12.375C11.0355 12.375 11.875 11.5355 11.875 10.5C11.875 9.46447 11.0355 8.625 10 8.625C8.96447 8.625 8.125 9.46447 8.125 10.5C8.125 11.5355 8.96447 12.375 10 12.375Z" fill="white"/>
<path d="M18.3746 12.2188L18.3562 12.2039L17.1234 11.2371C17.0454 11.1753 16.9831 11.0959 16.9416 11.0054C16.9002 10.9149 16.8808 10.8159 16.8851 10.7164V10.2648C16.8812 10.166 16.9008 10.0677 16.9423 9.97791C16.9838 9.88814 17.046 9.80949 17.1238 9.74844L18.3562 8.78125L18.3746 8.76641C18.5647 8.60807 18.6922 8.38729 18.7344 8.14354C18.7767 7.8998 18.7308 7.64898 18.6051 7.43594L16.9367 4.54922C16.9348 4.5465 16.9331 4.54362 16.9316 4.54063C16.8052 4.33053 16.6092 4.17135 16.3777 4.09071C16.1461 4.01008 15.8936 4.01309 15.6641 4.09922L15.6504 4.1043L14.2012 4.6875C14.1097 4.72448 14.0107 4.7392 13.9125 4.73044C13.8142 4.72168 13.7194 4.68969 13.6359 4.63711C13.5078 4.55638 13.3776 4.48008 13.2453 4.4082C13.1595 4.36169 13.0859 4.29567 13.0303 4.21547C12.9747 4.13527 12.9388 4.04313 12.9254 3.94648L12.707 2.4L12.7023 2.37187C12.6548 2.13234 12.5263 1.91647 12.3383 1.76054C12.1504 1.60462 11.9145 1.51813 11.6703 1.51562H8.32968C8.08205 1.51642 7.84264 1.60458 7.65363 1.76457C7.46462 1.92457 7.33814 2.14613 7.29647 2.39023L7.29296 2.41211L7.07538 3.96172C7.06203 4.05809 7.02637 4.15001 6.97124 4.23017C6.91611 4.31032 6.84302 4.3765 6.7578 4.42344C6.62421 4.49531 6.49374 4.57148 6.36718 4.65078C6.28384 4.70304 6.1893 4.73479 6.09131 4.74341C5.99332 4.75203 5.89469 4.73729 5.8035 4.70039L4.35311 4.11445L4.33944 4.10898C4.10954 4.02276 3.85669 4.01987 3.62488 4.1008C3.39307 4.18173 3.19697 4.34138 3.07069 4.55195L3.06561 4.56055L1.39491 7.44922C1.26898 7.66248 1.22302 7.91357 1.26525 8.15761C1.30747 8.40164 1.43512 8.6227 1.62538 8.78125L1.64374 8.79609L2.87655 9.76289C2.95462 9.82465 3.01693 9.90405 3.05835 9.99457C3.09977 10.0851 3.11913 10.1841 3.11483 10.2836V10.7352C3.11874 10.834 3.09915 10.9323 3.05766 11.0221C3.01617 11.1119 2.95396 11.1905 2.87616 11.2516L1.64374 12.2188L1.62538 12.2336C1.43531 12.3919 1.30776 12.6127 1.26554 12.8565C1.22332 13.1002 1.26917 13.351 1.39491 13.5641L3.06327 16.4508C3.06519 16.4535 3.06689 16.4564 3.06835 16.4594C3.19476 16.6695 3.39077 16.8287 3.62232 16.9093C3.85388 16.9899 4.10636 16.9869 4.33593 16.9008L4.3496 16.8957L5.79765 16.3125C5.88911 16.2755 5.98806 16.2608 6.08634 16.2696C6.18461 16.2783 6.2794 16.3103 6.36288 16.3629C6.491 16.4439 6.62121 16.5202 6.7535 16.5918C6.83928 16.6383 6.91292 16.7043 6.96849 16.7845C7.02406 16.8647 7.06001 16.9569 7.07343 17.0535L7.29061 18.6L7.2953 18.6281C7.34292 18.868 7.4718 19.0842 7.66022 19.2402C7.84865 19.3962 8.08508 19.4824 8.32968 19.4844H11.6703C11.9179 19.4836 12.1573 19.3954 12.3463 19.2354C12.5354 19.0754 12.6618 18.8539 12.7035 18.6098L12.707 18.5879L12.9246 17.0383C12.9382 16.9417 12.9741 16.8497 13.0296 16.7695C13.0851 16.6893 13.1585 16.6233 13.2441 16.5766C13.3777 16.5047 13.5082 16.4285 13.6348 16.3492C13.7181 16.297 13.8126 16.2652 13.9106 16.2566C14.0086 16.248 14.1072 16.2627 14.1984 16.2996L15.6488 16.8836L15.6625 16.8891C15.8924 16.9754 16.1453 16.9784 16.3771 16.8975C16.609 16.8165 16.8051 16.6568 16.9312 16.4461C16.9328 16.4431 16.9345 16.4403 16.9363 16.4375L18.6047 13.5512C18.7308 13.3379 18.777 13.0868 18.7348 12.8426C18.6926 12.5985 18.565 12.3773 18.3746 12.2188ZM13.1215 10.6469C13.093 11.2518 12.8894 11.8354 12.5355 12.3268C12.1815 12.8181 11.6923 13.196 11.1276 13.4145C10.5628 13.6331 9.94668 13.6828 9.35417 13.5576C8.76165 13.4325 8.21827 13.1379 7.79008 12.7097C7.3619 12.2814 7.06736 11.738 6.94229 11.1455C6.81723 10.5529 6.86701 9.93685 7.0856 9.37209C7.30419 8.80734 7.68216 8.31826 8.17355 7.96434C8.66495 7.61041 9.24859 7.40689 9.85351 7.37852C10.2878 7.3594 10.7213 7.43085 11.1265 7.58834C11.5316 7.74583 11.8996 7.98591 12.207 8.29331C12.5143 8.60071 12.7544 8.9687 12.9118 9.37389C13.0692 9.77908 13.1406 10.2126 13.1215 10.6469Z" fill="white"/>
</svg>
