<svg width="44" height="44" viewBox="0 0 44 44" fill="none" xmlns="http://www.w3.org/2000/svg">
<rect width="44" height="44" rx="11.3548" fill="#656565"/>
<path d="M22 22.6532C24.9596 22.653 26.0244 19.6897 26.3032 17.2556C26.6466 14.2569 25.2287 12 22 12C18.7719 12 17.3531 14.2567 17.6968 17.2556C17.9759 19.6897 19.0404 22.6534 22 22.6532Z" fill="white"/>
<path d="M30.0059 29.7091C29.9736 28.7645 29.8629 27.8156 29.698 26.8858C29.4983 25.7593 29.2442 24.1079 28.2607 23.3738C27.6919 22.9494 26.9554 22.8102 26.3043 22.5542C25.9874 22.4297 25.7035 22.306 25.4371 22.1653C24.5378 23.1514 23.3652 23.6673 21.9996 23.6674C20.6345 23.6674 19.462 23.1515 18.5628 22.1653C18.2964 22.3061 18.0125 22.4298 17.6956 22.5542C17.0445 22.8102 16.308 22.9494 15.7393 23.3738C14.7558 24.1079 14.5016 25.7593 14.3019 26.8858C14.1371 27.8156 14.0263 28.7645 13.994 29.7091C13.969 30.4407 14.3302 30.5432 14.9423 30.7641C15.7087 31.0405 16.5 31.2457 17.2966 31.4139C18.835 31.7388 20.4208 31.9885 21.9999 31.9997C23.5789 31.9885 25.1647 31.7388 26.7032 31.4139C27.4997 31.2458 28.2911 31.0406 29.0575 30.7641C29.6697 30.5433 30.0309 30.4407 30.0059 29.7091Z" fill="white"/>
</svg>
